<?xml version="1.0" standalone="no"?><!DOCTYPE svg PUBLIC "-//W3C//DTD SVG 1.1//EN" "http://www.w3.org/Graphics/SVG/1.1/DTD/svg11.dtd"><svg t="1597326890672" class="icon" viewBox="0 0 1098 1024" version="1.1" xmlns="http://www.w3.org/2000/svg" p-id="2272" xmlns:xlink="http://www.w3.org/1999/xlink" width="214.453125" height="200"><defs><style type="text/css"></style></defs><path d="M556.91292564 425.09642791q46.18304107 0 78.95810273 32.77506167t32.77506167 78.95810274-32.77506167 78.95810273-78.95810273 32.77506165-78.95810273-32.77506165-32.77506166-78.95810274 32.77506166-78.95810273 78.95810274-32.77506166zM830.0384377 263.70407957q41.11780459 0 70.21808626 29.10028166t29.10028166 70.21808624l0 347.61428833q0 41.11780459-29.10028166 70.21808625t-70.21808625 29.10028166l-546.25102481 0q-41.11780459 0-70.21808624-29.10028166t-29.10028166-70.21808625l0-347.61428833q0-41.11780459 29.10028166-70.21808625t70.21808624-29.10028165l86.90357208 0 19.76435517-52.73805326q7.34955933-19.0194673 26.96493663-32.77506167t40.17427961-13.7555937l198.63673649 1e-8q20.55890229 0 40.17427959 13.75559369t26.96493665 32.77506167l19.76435515 52.73805326 86.90357209 0zM556.91292564 710.63673648q71.75752124 0 122.80716234-50.99998182t50.99998182-122.80716234-50.99998182-122.80716234-122.80716234-50.99998183-122.80716233 50.99998183-50.99998183 122.80716234 50.99998183 122.80716234 122.80716234 50.99998182z" p-id="2273" fill="#333333"></path></svg>