<?xml version="1.0" standalone="no"?><!DOCTYPE svg PUBLIC "-//W3C//DTD SVG 1.1//EN" "http://www.w3.org/Graphics/SVG/1.1/DTD/svg11.dtd"><svg t="1597291892081" class="icon" viewBox="0 0 1024 1024" version="1.1" xmlns="http://www.w3.org/2000/svg" p-id="1100" xmlns:xlink="http://www.w3.org/1999/xlink" width="200" height="200"><defs><style type="text/css"></style></defs><path d="M570.06054688 278.1582034L494.42187527 248.328125l75.6386716-29.8300784L599.89062527 142.859375l29.83007758 75.6386716L705.35937527 248.328125l-75.63867242 29.8300784L599.89062527 353.796875l-29.8300784-75.6386716z m175.78124972-52.734375L670.203125 195.59375l75.6386716-29.8300784L775.671875 90.125l29.8300784 75.6386716L881.140625 195.59375l-75.6386716 29.8300784L775.671875 301.0625l-29.8300784-75.6386716z m52.734375 175.78124973L722.9375 371.37499973l75.6386716-29.83007758L828.40625 265.90624973l29.8300784 75.63867242L933.875 371.37499973l-75.6386716 29.83007839L828.40625 476.84374973l-29.8300784-75.63867161zM512 125.28125027v70.31249973C337.2558591 195.59375 195.59375 337.2558591 195.59375 512s141.6621091 316.40625 316.40625 316.40625 316.40625-141.6621091 316.40625-316.40625h70.31249973c0 213.57421875-173.14453098 386.71874973-386.71874973 386.71874973S125.28125027 725.57421875 125.28125027 512 298.42578125 125.28125027 512 125.28125027z m-149.15039035 552.19921848l49.71093695-49.71093777a140.62500027 140.62500027 0 0 0 198.8789068 0l49.71093695 49.71093777c-82.37109375 82.3886716-215.92968777 82.3886716-298.3007807 0zM388.95312527 529.57812473a52.734375 52.734375 0 1 1 0-105.46875 52.734375 52.734375 0 0 1 0 105.46875z m246.09374946 0a52.734375 52.734375 0 1 1 0-105.46875 52.734375 52.734375 0 0 1 0 105.46875z" p-id="1101"></path></svg>