<?xml version="1.0" standalone="no"?><!DOCTYPE svg PUBLIC "-//W3C//DTD SVG 1.1//EN" "http://www.w3.org/Graphics/SVG/1.1/DTD/svg11.dtd"><svg t="1597291884636" class="icon" viewBox="0 0 1024 1024" version="1.1" xmlns="http://www.w3.org/2000/svg" p-id="970" xmlns:xlink="http://www.w3.org/1999/xlink" width="200" height="200"><defs><style type="text/css"></style></defs><path d="M691.296875 655.52539063v18.72070312c0 10.37109375-6.59179689 18.72070313-14.67773438 18.72070312H354.41210937c-8.0859375 0-14.67773438-8.4375-14.67773437-18.72070312v-18.72070313c0-10.37109375 6.59179689-18.72070313 14.67773438-18.72070312h322.29492187c8.0859375 0 14.58984375 8.34960938 14.58984375 18.72070312zM362.5859375 491.87304687h-38.671875c-10.63476563 0-19.3359375 8.17382813-19.3359375 18.19335938v72.68554688c0 10.01953125 8.70117188 18.19335938 19.3359375 18.19335937h38.671875c10.63476563 0 19.3359375-8.17382813 19.3359375-18.19335938v-72.68554687c0-10.01953125-8.70117188-18.19335938-19.3359375-18.19335938zM477.45898437 491.87304687h-38.671875c-10.63476563 0-19.3359375 8.17382813-19.3359375 18.19335938v72.68554688c0 10.01953125 8.70117188 18.19335938 19.3359375 18.19335937h38.671875c10.63476563 0 19.3359375-8.17382813 19.3359375-18.19335938v-72.68554687c0-10.01953125-8.70117188-18.19335938-19.3359375-18.19335938zM592.33203125 491.87304687h-38.671875c-10.63476563 0-19.3359375 8.17382813-19.3359375 18.19335938v72.68554688c0 10.01953125 8.70117188 18.19335938 19.3359375 18.19335937h38.671875c10.63476563 0 19.3359375-8.17382813 19.3359375-18.19335938v-72.68554687c0-10.01953125-8.70117188-18.19335938-19.3359375-18.19335938zM707.20507813 491.87304687h-38.671875c-10.63476563 0-19.3359375 8.17382813-19.33593751 18.19335938v72.68554688c0 10.01953125 8.70117188 18.19335938 19.33593751 18.19335937h38.67187499c10.63476563 0 19.3359375-8.17382813 19.3359375-18.19335938v-72.68554687c0-10.01953125-8.70117188-18.19335938-19.3359375-18.19335938zM362.5859375 355.5546875h-38.671875c-10.63476563 0-19.3359375 8.17382813-19.3359375 18.19335938v72.68554687c0 10.01953125 8.70117188 18.19335938 19.3359375 18.19335938h38.671875c10.63476563 0 19.3359375-8.17382813 19.3359375-18.19335938v-72.68554688c0-10.01953125-8.70117188-18.19335938-19.3359375-18.19335937zM477.45898437 355.5546875h-38.671875c-10.63476563 0-19.3359375 8.17382813-19.3359375 18.19335938v72.68554687c0 10.01953125 8.70117188 18.19335938 19.3359375 18.19335938h38.671875c10.63476563 0 19.3359375-8.17382813 19.3359375-18.19335938v-72.68554688c0-10.01953125-8.70117188-18.19335938-19.3359375-18.19335937zM592.33203125 355.5546875h-38.671875c-10.63476563 0-19.3359375 8.17382813-19.3359375 18.19335938v72.68554687c0 10.01953125 8.70117188 18.19335938 19.3359375 18.19335938h38.671875c10.63476563 0 19.3359375-8.17382813 19.3359375-18.19335938v-72.68554688c0-10.01953125-8.70117188-18.19335938-19.3359375-18.19335937zM707.20507813 355.5546875h-38.671875c-10.63476563 0-19.3359375 8.17382813-19.33593751 18.19335938v72.68554687c0 10.01953125 8.70117188 18.19335938 19.33593751 18.19335938h38.67187499c10.63476563 0 19.3359375-8.17382813 19.3359375-18.19335938v-72.68554688c0-10.01953125-8.70117188-18.19335938-19.3359375-18.19335937z" p-id="971"></path><path d="M512 118.25C294.55859375 118.25 118.25 294.55859375 118.25 512s176.30859375 393.75 393.75 393.75 393.75-176.30859375 393.75-393.75S729.44140625 118.25 512 118.25z m0 720.703125c-180.52734375 0-326.953125-146.42578125-326.953125-326.953125s146.42578125-326.953125 326.953125-326.953125 326.953125 146.42578125 326.953125 326.953125-146.42578125 326.953125-326.953125 326.953125z" p-id="972"></path></svg>