<?xml version="1.0" standalone="no"?><!DOCTYPE svg PUBLIC "-//W3C//DTD SVG 1.1//EN" "http://www.w3.org/Graphics/SVG/1.1/DTD/svg11.dtd"><svg t="1597656601873" class="icon" viewBox="0 0 1024 1024" version="1.1" xmlns="http://www.w3.org/2000/svg" p-id="3030" xmlns:xlink="http://www.w3.org/1999/xlink" width="200" height="200"><defs><style type="text/css"></style></defs><path d="M557.45395527 820.27536349q18.82077835 18.82077835 18.82077835 45.45395527t-18.82077835 45.45395527q-18.46566933 18.46566933-45.45395527 18.46566932t-45.45395527-18.46566932q-18.82077835-18.82077835-18.82077835-45.45395527t18.82077835-45.45395527 45.45395527-18.82077835 45.45395527 18.82077835z m249.99675396-103.69183544q18.82077835 18.82077835 18.82077835 45.45395526t-18.82077835 45.45395527-45.45395527 18.82077835-45.45395527-18.82077835-18.82077835-45.45395527 18.82077835-45.45395526 45.45395527-18.82077836 45.45395527 18.82077836z m-499.99350792 0q18.82077835 18.82077835 18.82077835 45.45395526t-18.82077835 45.45395527-45.45395527 18.82077835-45.45395527-18.82077835-18.82077835-45.45395527 18.82077835-45.45395526 45.45395527-18.82077836 45.45395527 18.82077836z m603.68534337-249.99675396q18.46566933 18.46566933 18.46566932 45.45395526t-18.46566932 45.45395527q-18.82077835 18.82077835-45.45395527 18.82077835t-45.45395527-18.82077835-18.82077835-45.45395527 18.82077835-45.45395526 45.45395527-18.82077836 45.45395527 18.82077836z m-696.01369001-11.36348882q23.43719568 23.43719568 23.43719569 56.81744408t-23.43719569 56.81744408-56.81744408 23.43719569-56.81744408-23.43719569-23.43719569-56.81744408 23.43719569-56.81744408 56.81744408-23.43719569 56.81744408 23.43719569z m592.32185456-238.63326515q18.82077835 18.82077835 18.82077835 45.45395527t-18.82077835 45.45395527-45.45395527 18.82077835-45.45395527-18.82077835-18.82077835-45.45395527 18.82077835-45.45395527 45.45395527-18.82077835 45.45395527 18.82077835z m-477.26653029-22.72697763q28.40872204 28.40872204 28.40872204 68.1809329t-28.40872204 68.1809329-68.1809329 28.40872204-68.1809329-28.40872204-28.40872204-68.1809329 28.40872204-68.1809329 68.1809329-28.40872204 68.1809329 28.40872204z m261.36024277-115.05532426q33.02513937 33.02513937 32.84758486 79.72197622t-32.84758486 79.36686721q-33.02513937 33.02513937-79.54442171 33.02513937t-79.54442171-33.02513937q-32.67003035-32.67003035-32.84758486-79.36686721t32.84758486-79.72197622q32.67003035-32.67003035 79.54442171-32.67003035t79.54442171 32.67003035z" p-id="3031"></path></svg>