<?xml version="1.0" standalone="no"?><!DOCTYPE svg PUBLIC "-//W3C//DTD SVG 1.1//EN" "http://www.w3.org/Graphics/SVG/1.1/DTD/svg11.dtd"><svg t="1597326896982" class="icon" viewBox="0 0 1024 1024" version="1.1" xmlns="http://www.w3.org/2000/svg" p-id="2458" xmlns:xlink="http://www.w3.org/1999/xlink" width="200" height="200"><defs><style type="text/css"></style></defs><path d="M512 152c154.63999969 0 280.00000031 121.81999969 280.00000031 272.11999969 0 3.18-0.06 6.36-0.20000062 9.6-3.43999969 89.92000031-54.6 191.04-138.55999969 293.60000062a1181.92000031 1181.92000031 0 0 1-131.08000031 135.72l-10.15999969 8.73999938-10.15999969-8.73999938-12.20000062-10.90000031a1181.92000031 1181.92000031 0 0 1-118.87999969-124.84000031c-83.95999969-102.54-135.12-203.65999969-138.58000031-293.59999969-0.12-3.19999969-0.18-6.40000031-0.18-9.6 0-148.2 121.93999969-268.75999969 273.66-272.04L512 152z m0 130.00000031a139.99999969 139.99999969 0 1 0 0 279.99999938 139.99999969 139.99999969 0 0 0 0-279.99999938z m0 60a79.99999969 79.99999969 0 1 1 0 159.99999938 79.99999969 79.99999969 0 0 1 0-159.99999938z" p-id="2459" fill="#333333"></path></svg>