<?xml version="1.0" standalone="no"?><!DOCTYPE svg PUBLIC "-//W3C//DTD SVG 1.1//EN" "http://www.w3.org/Graphics/SVG/1.1/DTD/svg11.dtd"><svg t="1597291923818" class="icon" viewBox="0 0 1027 1024" version="1.1" xmlns="http://www.w3.org/2000/svg" p-id="1390" xmlns:xlink="http://www.w3.org/1999/xlink" width="200.5859375" height="200"><defs><style type="text/css"></style></defs><path d="M512.82397486 907.5078125c-105.46874975 0-204.34570287-39.55078125-280.15136744-115.35644506-154.90722631-154.90722631-154.90722631-405.39550781 0-560.30273412C308.47827123 156.04296875 407.35522436 116.4921875 512.82397486 116.4921875s204.34570287 39.55078125 280.15136744 115.35644506c154.90722631 154.90722631 154.90722631 405.39550781 0 560.30273412C717.16967773 867.95703125 618.29272461 907.5078125 512.82397486 907.5078125zM512.82397486 182.410156C423.83471705 182.410156 341.43725586 215.36914062 278.81518529 277.99121119 150.27514623 406.53125025 150.27514623 617.46874975 278.81518529 746.00878881 341.43725586 808.63085938 423.83471705 841.589844 512.82397486 841.589844s171.386719-32.95898463 234.00878881-95.58105443c128.54003906-128.54003906 128.54003906-336.18164063 0-464.72167969C684.21069311 215.36914062 601.81323267 182.410156 512.82397486 182.410156z" p-id="1391"></path><path d="M512.82397486 709.75390625c-19.77539063 0-32.95898463-13.183594-32.95898463-32.95898463L479.86499023 347.20507838c0-19.77539063 13.183594-32.95898463 32.95898463-32.95898463s32.95898463 13.183594 32.95898464 32.95898463l0 329.589844C545.78295873 696.57031225 532.59936549 709.75390625 512.82397486 709.75390625z" p-id="1392"></path><path d="M677.61889648 544.95898463L348.02905248 544.95898463c-19.77539063 0-32.95898463-13.183594-32.95898464-32.95898463s13.183594-32.95898463 32.95898464-32.95898463l329.589844 0c19.77539063 0 32.95898463 13.183594 32.95898463 32.95898463S697.39428711 544.95898463 677.61889648 544.95898463z" p-id="1393"></path></svg>