<?xml version="1.0" standalone="no"?><!DOCTYPE svg PUBLIC "-//W3C//DTD SVG 1.1//EN" "http://www.w3.org/Graphics/SVG/1.1/DTD/svg11.dtd"><svg t="1597326885703" class="icon" viewBox="0 0 1025 1024" version="1.1" xmlns="http://www.w3.org/2000/svg" p-id="2086" xmlns:xlink="http://www.w3.org/1999/xlink" width="200.1953125" height="200"><defs><style type="text/css"></style></defs><path d="M813.44287109 210.84101563l-602.6765625-1e-8c-38.42929687 0-69.55400391 31.12558594-69.5540039 69.52675782l0 463.59931641c0 38.40117188 31.12558594 69.55488281 69.5540039 69.55488281l602.6765625 0c38.40117188 0 69.55400391-31.15371094 69.55400391-69.55488281l0-463.59931641c-0.028125-38.40117188-31.18095703-69.52675781-69.55400391-69.52675782l0 0zM825.02597655 673.015625l-145.49677733-194.00097656c0 0-8.44716797-15.69111328-38.14277344-15.69111328-33.69287109 0-43.82314453 15.20595703-43.82314453 15.20595703l-127.43701172 196.70888672c0 0-6.93193359 13.18007812-23.93876953 13.18007812-17.80224609 0-26.30390625-13.18007812-26.30390625-13.18007812l-67.01572266-76.60019532c0 0-17.17207031-22.7390625-39.48310547-22.7390625-22.22226562 0-40.68105469 25.16044922-40.68105468 25.16044922l-73.54863281 91.63652344 0-399.89091797c0-12.7828125 10.38515625-23.19521484 23.19521484-23.19521484l579.51298828 0c12.80830078 0 23.19169922 10.41328125 23.19169922 23.19521484l0 380.2078125-0.0272461 0zM477.25595703 419.47402343c0 45.36210937-36.74619141 82.10742188-82.07929687 82.10742188s-82.10654297-36.77519531-82.10654297-82.10742188c0-45.30146484 36.77431641-82.07402345 82.10654297-82.07402343 45.33398438 0.028125 82.07929687 36.7734375 82.07929687 82.07402343l0 0zM477.25595703 419.47402343z" p-id="2087" fill="#333333"></path></svg>