<?xml version="1.0" standalone="no"?><!DOCTYPE svg PUBLIC "-//W3C//DTD SVG 1.1//EN" "http://www.w3.org/Graphics/SVG/1.1/DTD/svg11.dtd"><svg t="1597326880670" class="icon" viewBox="0 0 1024 1024" version="1.1" xmlns="http://www.w3.org/2000/svg" p-id="1812" xmlns:xlink="http://www.w3.org/1999/xlink" width="200" height="200"><defs><style type="text/css"></style></defs><path d="M872 318.00000031a67.99999969 67.99999969 0 0 0-73.99999969 12l-86.00000062 79.99999969V351.99999969a120 120 0 0 0-120-120H231.99999969a120 120 0 0 0-120 120v320.00000062a120 120 0 0 0 120 120h360a120 120 0 0 0 120-120v-58.00000031l86.4 79.99999969a69.6 69.6 0 0 0 46.40000062 18 67.2 67.2 0 0 0 27.6-6 64.00000031 64.00000031 0 0 0 39.99999938-59.19999938V377.19999969A64.00000031 64.00000031 0 0 0 872 318.00000031z" p-id="1813" fill="#333333"></path></svg>