<?xml version="1.0" standalone="no"?><!DOCTYPE svg PUBLIC "-//W3C//DTD SVG 1.1//EN" "http://www.w3.org/Graphics/SVG/1.1/DTD/svg11.dtd"><svg t="1597291865698" class="icon" viewBox="0 0 1024 1024" version="1.1" xmlns="http://www.w3.org/2000/svg" p-id="838" xmlns:xlink="http://www.w3.org/1999/xlink" width="200" height="200"><defs><style type="text/css"></style></defs><path d="M543.640625 288.31835937l-1.84570313 2.19726563c-9.40429688 10.8984375-8.61328125 27.24609375 1.58203125 37.44140625 48.77929688 48.95507813 79.01367188 116.63085938 79.01367188 191.33789063 0 73.4765625-29.35546875 140.18554688-76.90429688 189.05273437-9.84375 10.1953125-10.63476563 26.19140625-1.40624999 37.08984375 10.45898438 12.48046875 29.44335938 13.27148438 40.86914062 1.66992188 58.18359375-59.15039063 94.13085938-140.36132813 94.13085938-229.83398438 0-89.82421875-36.12304688-171.12304688-94.74609376-230.44921875-11.33789063-11.6015625-30.234375-10.81054688-40.69335937 1.49414063z" p-id="839"></path><path d="M494.59765625 384.11914062c-9.58007813-13.09570313-28.56445313-14.67773438-40.25390625-3.25195312l-0.61523438 0.43945313c-9.75585938 9.40429688-10.98632813 24.34570313-2.90039062 35.24414062 21.62109375 29.26757813 34.27734375 65.30273438 34.27734375 104.4140625 0 36.2109375-10.98632813 69.78515625-29.61914063 97.82226563-7.55859375 11.25-5.36132813 26.45507813 4.92187501 35.24414062 12.21679688 10.28320313 30.67382813 7.82226563 39.63867187-5.36132813 24.69726563-36.65039063 39.0234375-80.859375 39.0234375-128.32031249 0.08789063-51.06445313-16.43554688-97.99804688-44.47265625-136.23046876z" p-id="840"></path><path d="M335.69140625 517.9765625a60.38085938 42.71484375 90 1 0 85.4296875 0 60.38085938 42.71484375 90 1 0-85.4296875 0Z" p-id="841"></path><path d="M512 118.25h-5.09765625C291.83398437 120.97460937 118.25 296.22851562 118.25 512c0 217.52929688 176.30859375 393.75 393.75 393.75s393.75-176.22070313 393.75-393.75c0-217.44140625-176.30859375-393.75-393.75-393.75z m0 720.703125c-180.52734375 0-326.953125-146.42578125-326.953125-326.953125s146.42578125-326.953125 326.953125-326.953125 326.953125 146.42578125 326.953125 326.953125-146.42578125 326.953125-326.953125 326.953125z" p-id="842"></path></svg>