<?xml version="1.0" standalone="no"?><!DOCTYPE svg PUBLIC "-//W3C//DTD SVG 1.1//EN" "http://www.w3.org/Graphics/SVG/1.1/DTD/svg11.dtd"><svg t="1597493123872" class="icon" viewBox="0 0 1024 1024" version="1.1" xmlns="http://www.w3.org/2000/svg" p-id="1031" xmlns:xlink="http://www.w3.org/1999/xlink" width="200" height="200"><defs><style type="text/css"></style></defs><path d="M82.98768981 297.49384493a71.50205225 71.50205225 0 0 1 71.50205225 71.50205224v286.00820566a71.50205225 71.50205225 0 1 1-143.00410448 0v-286.00820566a71.50205225 71.50205225 0 0 1 71.50205223-71.50205224z m286.00820736-286.00820735a71.50205225 71.50205225 0 0 1 71.50205058 71.50205223v858.02462038a71.50205225 71.50205225 0 1 1-143.00410282 0V82.98768981a71.50205225 71.50205225 0 0 1 71.50205224-71.50205223z m286.00820566 178.75512977a71.50205225 71.50205225 0 0 1 71.50205224 71.50205228v500.51436074a71.50205225 71.50205225 0 1 1-143.00410282 0V261.74281963a71.50205225 71.50205225 0 0 1 71.50205058-71.50205228z m286.00820736 107.25307758a71.50205225 71.50205225 0 0 1 71.50205223 71.50205224v321.75923263a71.50205225 71.50205225 0 1 1-143.00410448 0v-321.75923263a71.50205225 71.50205225 0 0 1 71.50205225-71.50205224z" fill="#333333" p-id="1032"></path></svg>