<?xml version="1.0" standalone="no"?><!DOCTYPE svg PUBLIC "-//W3C//DTD SVG 1.1//EN" "http://www.w3.org/Graphics/SVG/1.1/DTD/svg11.dtd"><svg t="1599224584219" class="icon" viewBox="0 0 1024 1024" version="1.1" xmlns="http://www.w3.org/2000/svg" p-id="1950" xmlns:xlink="http://www.w3.org/1999/xlink" width="200" height="200"><defs><style type="text/css"></style></defs><path d="M409.7408 576.51697776c-111.7888 0-202.736-90.9472-202.736-202.736S297.952 171.04604443 409.7408 171.04604443s202.736 90.9472 202.736 202.736-90.9472 202.73493333-202.736 202.73493333z m0-338.64533333c-74.94186667 0-135.9104 60.96853333-135.9104 135.9104S334.79893333 509.69244443 409.7408 509.69244443s135.9104-60.96853333 135.9104-135.9104-60.96853333-135.9104-135.9104-135.9104z" fill="#333333" p-id="1951"></path><path d="M702.02773333 868.80497776c-18.45226667 0-33.41226667-14.96106667-33.41226666-33.41226667 0-142.74666667-116.12906667-258.87466667-258.87466667-258.87466666s-258.87466667 116.128-258.87466667 258.87466666c0 18.45226667-14.96106667 33.41226667-33.41226666 33.41226667s-33.41226667-14.96106667-33.41226667-33.41226667c0-179.5936 146.10666667-325.70026667 325.70026667-325.70026666s325.70026667 146.10666667 325.70026666 325.70026666c-0.00106667 18.4512-14.96213333 33.41226667-33.4144 33.41226667zM658.87573333 560.74951109c-14.90346667 0-28.48533333-10.0416-32.34453333-25.14133333-4.576-17.88053333 6.21546667-36.08 24.08853333-40.64853333 62.95893333-16.1024 93.5648-62.55893333 93.5648-142.0288 0-64.50026667-59.68746667-115.02293333-135.87733333-115.02293334-18.45226667 0-33.41226667-14.96106667-33.41226667-33.41226666s14.96106667-33.41226667 33.41226667-33.41226667c113.66506667 0 202.70293333 79.87733333 202.70293333 181.84853333 0 109.6192-51.0816 183.05173333-143.83146666 206.76586667a33.59786667 33.59786667 0 0 1-8.30293334 1.05173333z" fill="#333333" p-id="1952"></path><path d="M900.58773333 868.80497776c-18.45226667 0-33.41226667-14.96106667-33.41226666-33.41226667 0-136.69333333-64.40213333-274.61866667-208.2912-274.61866666-18.45226667 0-33.41226667-14.96106667-33.41226667-33.41226667 0-18.45226667 14.96106667-33.41226667 33.41226667-33.41226667 190.0512 0 275.1168 171.49333333 275.1168 341.44426667-0.00106667 18.45013333-14.96213333 33.4112-33.41333334 33.4112z" fill="#333333" p-id="1953"></path></svg>