<?xml version="1.0" standalone="no"?><!DOCTYPE svg PUBLIC "-//W3C//DTD SVG 1.1//EN" "http://www.w3.org/Graphics/SVG/1.1/DTD/svg11.dtd"><svg t="1599224588018" class="icon" viewBox="0 0 1024 1024" version="1.1" xmlns="http://www.w3.org/2000/svg" p-id="2084" xmlns:xlink="http://www.w3.org/1999/xlink" width="200" height="200"><defs><style type="text/css"></style></defs><path d="M183.55413333 435.2224c-17.88906667 0-32.39253333-14.50346667-32.39253333-32.39253333V228.4704c0-42.13973333 34.28266667-76.42666667 76.42666667-76.42666667h174.6176c17.88906667 0 32.39253333 14.50346667 32.39253333 32.39253334s-14.50453333 32.39253333-32.39253333 32.39253333H227.58826667c-6.42133333 0-11.6416 5.22346667-11.6416 11.6416v174.36053333c0.00106667 17.888-14.50346667 32.39146667-32.39253334 32.39146667zM402.20586667 872.77866667H227.58826667c-42.144 0-76.42666667-34.28266667-76.42666667-76.42666667V644.25706667c0-17.88906667 14.50346667-32.39253333 32.39253333-32.39253334s32.39253333 14.50346667 32.39253334 32.39253334V796.352c0 6.42133333 5.2192 11.6416 11.6416 11.6416h174.6176c17.88906667 0 32.39253333 14.50346667 32.39253333 32.39253333 0 17.888-14.50346667 32.39253333-32.39253333 32.39253334zM795.47413333 872.77866667h-160.192c-17.88906667 0-32.39253333-14.50346667-32.39253333-32.39253334s14.50346667-32.39253333 32.39253333-32.39253333h160.192c6.42133333 0 11.6416-5.2192 11.6416-11.6416V646.0288c0-17.88906667 14.50346667-32.39253333 32.39253334-32.39253333s32.39253333 14.50346667 32.39253333 32.39253333V796.352c0 42.14293333-34.28266667 76.42666667-76.42666667 76.42666667zM839.50826667 435.47626667c-17.88906667 0-32.39253333-14.50346667-32.39253334-32.39253334v-174.61333333c0-6.41813333-5.2192-11.6416-11.6416-11.6416h-158.42133333c-17.88906667 0-32.39253333-14.50346667-32.39253333-32.39253333s14.50346667-32.39253333 32.39253333-32.39253334h158.42133333c42.144 0 76.42666667 34.28693333 76.42666667 76.42666667v174.61333333c0 17.888-14.50346667 32.39253333-32.39253333 32.39253334z" fill="#333333" p-id="2085"></path><path d="M742.3296 540.752H280.7328c-17.88906667 0-32.39253333-14.50346667-32.39253333-32.39253333s14.50453333-32.39253333 32.39253333-32.39253334h461.5968c17.88906667 0 32.39253333 14.50346667 32.39253333 32.39253334s-14.50346667 32.39253333-32.39253333 32.39253333z" fill="#333333" p-id="2086"></path></svg>