<?xml version="1.0" standalone="no"?><!DOCTYPE svg PUBLIC "-//W3C//DTD SVG 1.1//EN" "http://www.w3.org/Graphics/SVG/1.1/DTD/svg11.dtd"><svg t="1599225492499" class="icon" viewBox="0 0 1024 1024" version="1.1" xmlns="http://www.w3.org/2000/svg" p-id="1547" xmlns:xlink="http://www.w3.org/1999/xlink" width="200" height="200"><defs><style type="text/css"></style></defs><path d="M515.529 704.33833332c-92.132 0-246.723-40.056-246.723-308.405 0-136.056 110.677-246.733 246.723-246.733 39.592 0 79.013 9.642 113.882 27.796 7.11 3.707 13.993 7.708 20.63 12.079 14.24 9.337 18.183 28.47 8.834 42.71-9.347 14.24-28.441 18.222-42.681 8.846a189 189 0 0 0-15.302-8.941c-26.49-13.793-55.214-20.81-85.364-20.81-102.03 0-185.043 83.012-185.043 185.053 0 166.005 60.544 246.723 185.043 246.723 124.5 0 185.043-80.717 185.043-246.723 0-23.323-4.266-46.057-12.704-67.588-6.238-15.869 1.592-33.759 17.444-39.971 15.815-6.17 33.751 1.565 39.953 17.446 11.281 28.717 16.989 59.055 16.989 90.113 0.001 268.35-154.591 308.405-246.724 308.405" fill="#333333" p-id="1548"></path><path d="M854.784 889.38233332c-12.003 0-23.455-7.035-28.424-18.848-19.284-45.774-115.607-166.196-218.301-166.196H423.018c-102.714 0-199.036 120.422-218.321 166.196-6.617 15.681-24.744 22.942-40.405 16.438-15.681-6.636-23.037-24.705-16.459-40.405 25.313-60.004 140.39-203.91 275.185-203.91H608.06c134.778 0 249.853 143.906 275.166 203.91 6.58 15.7-0.796 33.769-16.457 40.405a31.102 31.102 0 0 1-11.985 2.41" fill="#333333" p-id="1549"></path><path d="M515.529 827.70033332c-103.755 0-185.043-54.181-185.043-123.361 0-17.046 13.805-30.841 30.831-30.841 17.065 0 30.831 13.795 30.831 30.841 0 29.124 52.789 61.68 123.381 61.68 18.847 0 36.955-2.256 53.812-6.683 18.183-4.759 34.186-11.898 46.38-20.63 8.722-6.2 23.189-18.857 23.189-34.367 0-17.046 13.766-30.841 30.831-30.841 17.028 0 30.831 13.795 30.831 30.841 0 31.979-17.387 62.012-48.939 84.539-18.222 13.046-41.298 23.492-66.611 30.12-21.956 5.782-45.374 8.702-69.493 8.702M608.06 426.77533332c0 17.017-13.823 30.831-30.849 30.831-17.009 0-30.851-13.815-30.851-30.831 0-17.028 13.842-30.841 30.851-30.841 17.026 0 30.849 13.813 30.849 30.841M484.698 426.77533332c0 17.017-13.842 30.831-30.849 30.831-17.028 0-30.831-13.815-30.831-30.831 0-17.028 13.803-30.841 30.831-30.841 17.007 0 30.849 13.813 30.849 30.841" fill="#333333" p-id="1550"></path></svg>