<?xml version="1.0" standalone="no"?><!DOCTYPE svg PUBLIC "-//W3C//DTD SVG 1.1//EN" "http://www.w3.org/Graphics/SVG/1.1/DTD/svg11.dtd"><svg t="1597742297488" class="icon" viewBox="0 0 1024 1024" version="1.1" xmlns="http://www.w3.org/2000/svg" p-id="1342" xmlns:xlink="http://www.w3.org/1999/xlink" width="200" height="200"><defs><style type="text/css"></style></defs><path d="M808.86439504 215.13575412a280.2373251 280.2373251 0 0 1 82.41324438 198.87365791A280.2935751 280.2935751 0 0 1 808.86439503 612.88306994a280.2373251 280.2373251 0 0 1-198.87365792 82.41324439A280.2935751 280.2935751 0 0 1 443.17551302 640.48673352l-51.94579959 51.9457996 99.43682896 99.43682895A42.07497363 42.07497363 0 0 1 490.66654237 851.53145944a42.07497363 42.07497363 0 0 1-59.66209736-1e-8l-99.43682896-99.43682894-99.3970542 99.3970542a42.07497363 42.07497363 0 0 1-59.66209738 0 42.07497363 42.07497363 0 0 1-1e-8-59.66209739L271.90551866 692.43253311l-99.43682894-99.43682896A42.07497363 42.07497363 0 0 1 172.46868971 533.33360678a42.07497363 42.07497363 0 0 1 59.66209738 1e-8l99.43682895 99.43682896L383.51341564 580.82463614a280.2373251 280.2373251 0 0 1-54.76980607-166.85499887A280.2373251 280.2373251 0 0 1 411.11707921 215.13575412a280.2373251 280.2373251 0 0 1 198.87365791-82.4132444A280.2373251 280.2373251 0 0 1 808.86439504 215.13575412z m-59.66209737 59.66209738C672.43706558 198.03261942 547.54440868 198.03261942 470.7791766 274.79785151S394.01394452 476.45574049 470.77917659 553.22097257 672.43706558 629.98620466 749.20229767 553.22097257 825.96752974 351.56308357 749.20229767 274.7978515z" fill="#ffffff" p-id="1343"></path></svg>