<?xml version="1.0" standalone="no"?><!DOCTYPE svg PUBLIC "-//W3C//DTD SVG 1.1//EN" "http://www.w3.org/Graphics/SVG/1.1/DTD/svg11.dtd"><svg t="1597742305127" class="icon" viewBox="0 0 1267 1024" version="1.1" xmlns="http://www.w3.org/2000/svg" p-id="1630" xmlns:xlink="http://www.w3.org/1999/xlink" width="247.4609375" height="200"><defs><style type="text/css"></style></defs><path d="M372.74929764 594.21248482a234.92377681 234.92377681 0 1 1 234.92377683-234.92377682 235.62295507 235.62295507 0 0 1-234.92377683 234.92377682z m0-391.53962855a156.61585096 156.61585096 0 1 0 156.61585174 156.61585173 157.10527566 157.10527566 0 0 0-156.61585174-156.61585173z m195.76981429 509.00151696H176.97948337a39.15396254 39.15396254 0 0 1 0-78.30792587h391.53962856a39.15396254 39.15396254 0 0 1-1e-8 78.30792587z" fill="#ffffff" p-id="1631"></path><path d="M372.74929764 907.44418749a36.98651099 36.98651099 0 0 1-39.15396254-39.15396331v-313.23170268a39.15396254 39.15396254 0 0 1 78.30792587 0v313.23170268a36.98651099 36.98651099 0 0 1-39.15396333 39.15396331z m509.00151696 1e-8A234.92377681 234.92377681 0 1 1 1116.67459141 672.52041068a235.62295507 235.62295507 0 0 1-234.9237768 234.92377681z m0-391.53962855a156.61585096 156.61585096 0 1 0 156.61585095 156.61585173 157.10527566 157.10527566 0 0 0-156.61585095-156.61585173z" fill="#ffffff" p-id="1632"></path><path d="M881.75081461 515.90455895a36.98651099 36.98651099 0 0 1-39.15396256-39.15396254V163.51889373a39.15396254 39.15396254 0 0 1 78.3079251 0V476.61076046a36.98651099 36.98651099 0 0 1-39.15396255 39.15396331z" fill="#ffffff" p-id="1633"></path><path d="M1046.19745838 359.288708a35.51823767 35.51823767 0 0 1-27.40777371-11.74618884l-137.03887007-137.03887007-137.03887006 137.03887007a38.73445622 38.73445622 0 1 1-54.81554819-54.81554819L854.3430409 128.28032721a37.82552519 37.82552519 0 0 1 54.8155474-1e-8l164.44664379 164.44664377a37.82552519 37.82552519 0 0 1-1e-8 54.81554819 30.48415706 30.48415706 0 0 1-27.40777371 11.74618884z" fill="#ffffff" p-id="1634"></path></svg>