<?xml version="1.0" standalone="no"?><!DOCTYPE svg PUBLIC "-//W3C//DTD SVG 1.1//EN" "http://www.w3.org/Graphics/SVG/1.1/DTD/svg11.dtd"><svg t="1597742301024" class="icon" viewBox="0 0 1024 1024" version="1.1" xmlns="http://www.w3.org/2000/svg" p-id="1486" xmlns:xlink="http://www.w3.org/1999/xlink" width="200" height="200"><defs><style type="text/css"></style></defs><path d="M871.5314331 162.45349121a39.18823242 39.18823242 0 0 0-20.15606689-10.45376587L656.3751831 136.29724122a39.3283081 39.3283081 0 0 0-5.1564331 78.42178344l102.65652466 10.4529419-133.12545776 135.9376831a337.21902466 337.21902466 0 0 0-128.10910034-67.96966553A291.37472534 291.37472534 0 0 0 144.40597534 518.14108276a300.65597534 300.65597534 0 0 0 220.3126831 360.93795776A293.81286622 293.81286622 0 0 0 717.875 654.0779419a299.6251831 299.6251831 0 0 0-40.78097534-230.01580812l122.81259156-130.73428344-5.15643312 94.12509156a40.21820068 40.21820068 0 0 0 36.0933838 41.81259154 39.5623169 39.5623169 0 0 0 40.78179932-36.60919188l15.46847534-198.65615846a37.49990844 37.49990844 0 0 0-15.46847534-31.35964966z m-240.46875 470.53070069A207.32849122 207.32849122 0 0 1 379.99926758 789.87472534a211.8751831 211.8751831 0 0 1-153.6564331-256.21820068 207.09365844 207.09365844 0 0 1 250.96865844-156.8435669A219.00009156 219.00009156 0 0 1 631.0626831 632.9841919z m0 0" fill="#ffffff" p-id="1487"></path></svg>